<?xml version="1.0" standalone="no"?>
<!DOCTYPE svg PUBLIC "-//W3C//DTD SVG 20010904//EN"
 "http://www.w3.org/TR/2001/REC-SVG-20010904/DTD/svg10.dtd">
<svg version="1.0" xmlns="http://www.w3.org/2000/svg"
 width="712.000000pt" height="712.000000pt" viewBox="0 0 712.000000 712.000000"
 preserveAspectRatio="xMidYMid meet">
<metadata>
Created by potrace 1.11, written by Peter Selinger 2001-2013
</metadata>
<g transform="translate(0.000000,712.000000) scale(0.100000,-0.100000)"
fill="#000000" stroke="none">
<path d="M6333 5996 c-121 -39 -193 -143 -188 -272 2 -46 10 -75 29 -110 l27
-48 -33 -45 c-50 -71 -569 -761 -606 -806 -9 -12 -51 -66 -92 -120 -116 -155
-110 -149 -128 -111 -15 33 -116 186 -139 211 -10 11 -26 31 -35 43 -52 75
-244 265 -347 342 -18 14 -45 34 -59 46 -63 48 -218 138 -333 193 -212 101
-421 160 -659 188 -82 10 -372 10 -466 1 -304 -30 -649 -155 -919 -333 -160
-105 -344 -269 -450 -400 -22 -27 -48 -59 -58 -70 -32 -35 -142 -207 -190
-295 -69 -129 -138 -303 -177 -450 -12 -44 -15 -58 -25 -110 -3 -14 -7 -34 -9
-45 -2 -11 -7 -39 -11 -62 l-6 -41 -87 -1 c-315 -1 -596 -114 -826 -331 -166
-158 -289 -376 -341 -605 -30 -132 -28 -390 4 -552 46 -233 190 -468 368 -604
32 -24 60 -46 63 -49 10 -10 65 -41 150 -84 123 -63 245 -100 460 -142 19 -4
991 -8 2160 -9 2271 -2 2142 -5 2315 46 461 134 811 402 1005 771 189 359 217
840 74 1240 -195 542 -677 929 -1254 1004 -18 3 -36 7 -39 9 -2 3 63 93 145
200 82 108 264 350 405 537 l257 341 88 1 c95 2 136 17 195 72 69 65 96 195
61 290 -46 124 -203 201 -329 160z m-2588 -770 c22 -4 54 -8 70 -10 341 -44
715 -232 984 -495 145 -141 267 -305 351 -471 40 -78 70 -113 107 -124 13 -4
72 -9 132 -11 527 -17 967 -337 1152 -836 16 -44 31 -95 34 -112 3 -18 8 -39
10 -47 14 -51 18 -92 21 -240 1 -91 -2 -190 -7 -220 -4 -30 -11 -68 -14 -85
-27 -166 -130 -380 -245 -509 -187 -211 -395 -333 -755 -443 -57 -17 -150 -18
-2130 -18 -1138 0 -2099 4 -2135 8 -317 36 -592 183 -723 388 -85 134 -125
272 -132 459 -7 178 25 324 100 467 124 234 328 398 580 464 93 24 281 33 365
18 81 -16 120 -11 157 17 40 30 53 54 58 102 2 20 7 64 10 97 23 234 127 544
244 725 8 14 21 35 28 48 31 59 163 220 249 307 202 201 441 350 704 438 90
30 140 42 290 72 14 3 57 8 95 11 39 4 71 8 73 9 6 5 288 -3 327 -9z"/>
<path d="M2451 3674 c-33 -28 -33 -80 0 -105 23 -18 66 -19 1231 -16 1194 2
1207 2 1222 22 21 28 20 68 -3 96 l-19 24 -1203 0 -1204 0 -24 -21z"/>
<path d="M2450 3280 c-11 -11 -21 -26 -21 -32 -3 -33 4 -55 24 -73 22 -20 35
-20 1224 -20 1165 0 1202 1 1222 19 31 28 28 79 -5 105 -27 21 -28 21 -1225
21 -1186 0 -1199 0 -1219 -20z"/>
<path d="M5417 2940 c-66 -25 -108 -60 -146 -119 -38 -58 -45 -85 -44 -166 3
-238 295 -364 475 -206 99 87 128 228 73 346 -24 48 -86 110 -137 135 -59 29
-158 34 -221 10z"/>
<path d="M2499 2902 c-37 -3 -65 -24 -69 -52 -6 -38 2 -61 26 -76 24 -16 115
-17 1217 -17 903 0 1198 3 1215 12 41 22 42 100 0 122 -17 9 -314 12 -1188 13
-641 1 -1181 0 -1201 -2z"/>
<path d="M2467 2497 c-53 -17 -53 -108 0 -128 14 -5 506 -9 1214 -9 l1191 0
28 28 c32 32 31 69 -2 99 -19 17 -76 18 -1214 18 -657 0 -1204 -3 -1217 -8z"/>
</g>
</svg>
